<svg xmlns="http://www.w3.org/2000/svg" width="177" height="166" viewBox="0 0 177 166" fill="none" x="235" y="5">
<g id="GES_D">
<g id="cadre">
<path id="cadre_2" d="M135.912 1H6.08781C3.27789 1 1 3.44895 1 6.46988V159.53C1 162.551 3.27789 165 6.08781 165H135.912C138.722 165 141 162.551 141 159.53V6.46988C141 3.44895 138.722 1 135.912 1Z" stroke="#A5DBF8" stroke-width="1.89334" stroke-miterlimit="10"/>
<text id="label_haut" fill="#8CB4D3" style="white-space: pre" xml:space="preserve" font-family="Nimbus Sans" font-size="6" font-weight="bold" letter-spacing="0em"><tspan x="11" y="35.1279">peu d'émissions de CO₂</tspan></text>
<text id="label_bas" fill="#393551" style="white-space: pre" xml:space="preserve" font-family="Nimbus Sans" font-size="6" font-weight="bold" letter-spacing="0em"><tspan x="11" y="147.058">émissions de CO₂
</tspan><tspan x="11" y="154.058">très importantes</tspan></text>
<text id="label-asterisque" fill="#212529" style="white-space: pre" xml:space="preserve" font-family="Nimbus Sans" font-size="7" font-weight="bold" letter-spacing="0em"><tspan x="11" y="15.8159">* Dont émissions de gaz
</tspan><tspan x="11" y="23.8159">à effet de serre</tspan></text>
</g>
<g id="graph">
<path id="Vector" d="M11.0103 53.9327H29.5906C30.3095 53.934 31.0217 53.7934 31.6861 53.5189C32.3506 53.2445 32.9543 52.8415 33.4626 52.3331C33.971 51.8248 34.3739 51.2211 34.6484 50.5566C34.9229 49.8922 35.0635 49.1801 35.0621 48.4611C35.0621 47.7431 34.9205 47.0321 34.6454 46.3689C34.3703 45.7056 33.9672 45.1031 33.4589 44.5959C32.9507 44.0886 32.3475 43.6866 31.6837 43.4127C31.0199 43.1389 30.3087 42.9986 29.5906 43H11.0103V53.9327Z" fill="#A4DBF8"/>
<path id="Vector_2" d="M18.544 51.7254L18.0777 50.1709H15.9015L15.4352 51.7254H13.9948L16.1399 45.2072H17.9015L19.9741 51.7254H18.544ZM17 46.544L16.2746 49.0103H17.7668L17 46.544Z" fill="white"/>
<path id="Vector_3" d="M11.0103 78.886H46.658C48.1037 78.8778 49.4875 78.2977 50.5069 77.2725C51.5262 76.2473 52.0984 74.8603 52.0984 73.4145C52.0957 71.9642 51.5183 70.5741 50.4928 69.5486C49.4673 68.5231 48.0772 67.9457 46.6269 67.943H11.0103V78.886Z" fill="#7792B1"/>
<path id="Vector_4" d="M14.4301 73.4663C14.4301 71.259 15.5596 70.0466 17.3212 70.0466C17.838 70.007 18.3538 70.1348 18.7923 70.411C19.2309 70.6872 19.5689 71.0971 19.7565 71.5803L18.5337 72.2124C18.4725 71.9421 18.3166 71.7027 18.0943 71.5373C17.8719 71.372 17.5977 71.2916 17.3212 71.3109C16.4922 71.3109 15.9326 71.8704 15.9326 72.8963V73.9326C15.9326 74.9689 16.4922 75.5181 17.3212 75.5181C17.6136 75.5183 17.8981 75.4234 18.1318 75.2476C18.3655 75.0719 18.5356 74.8249 18.6166 74.544L19.7668 75.2176C19.5677 75.6961 19.2262 76.1019 18.7888 76.3799C18.3514 76.6579 17.8391 76.7948 17.3212 76.772C15.5596 76.7824 14.4301 75.6632 14.4301 73.4663Z" fill="white"/>
<path id="Vector_5" d="M11.5181 101.052V80.9379H52.7202C54.0681 80.8946 55.4109 81.1227 56.6689 81.6086C57.9268 82.0946 59.0743 82.8284 60.043 83.7666C61.0118 84.7047 61.7821 85.828 62.3081 87.0698C62.8342 88.3115 63.1053 89.6463 63.1053 90.9949C63.1053 92.3434 62.8342 93.6782 62.3081 94.9199C61.7821 96.1617 61.0118 97.285 60.043 98.2231C59.0743 99.1613 57.9268 99.8951 56.6689 100.381C55.4109 100.867 54.0681 101.095 52.7202 101.052H11.5181Z" fill="#606F8F"/>
<path id="Vector_6" d="M52.7202 81.4456C55.1984 81.5272 57.5478 82.5691 59.2719 84.351C60.9961 86.1329 61.96 88.5153 61.96 90.9948C61.96 93.4743 60.9961 95.8567 59.2719 97.6386C57.5478 99.4205 55.1984 100.462 52.7202 100.544H12.0259V81.4456H52.7202ZM52.7202 80.4093H11V101.57H52.7202C55.4676 101.484 58.0737 100.332 59.9867 98.3582C61.8997 96.3844 62.9695 93.7435 62.9695 90.9948C62.9695 88.246 61.8997 85.6052 59.9867 83.6314C58.0737 81.6575 55.4676 80.5057 52.7202 80.4197V80.4093Z" fill="#1D1D1B"/>
<path id="Vector_7" d="M11.0103 114.047H71C71.718 114.047 72.429 113.905 73.0923 113.63C73.7555 113.355 74.358 112.952 74.8653 112.443C75.3725 111.935 75.7745 111.332 76.0484 110.668C76.3222 110.004 76.4625 109.293 76.4611 108.575C76.4611 107.126 75.8861 105.736 74.8622 104.71C73.8384 103.684 72.4493 103.106 71 103.104H11.0103V114.047Z" fill="#4D5271"/>
<path id="Vector_8" d="M14.8964 111.829V105.321H19.3212V106.575H16.3057V107.912H18.9378V109.166H16.3471V110.575H19.3627V111.829H14.8964Z" fill="white"/>
<path id="Vector_9" d="M11.0103 126.523H79.5181C80.9684 126.521 82.3585 125.943 83.384 124.918C84.4095 123.892 84.9869 122.502 84.9896 121.052C84.9896 119.601 84.4132 118.209 83.3871 117.183C82.3609 116.157 80.9692 115.58 79.5181 115.58H11.0103V126.523Z" fill="#393551"/>
<path id="Vector_10" d="M15 124.306V117.798H19.3109V119.052H16.4093V120.389H18.9378V121.674H16.4093V124.337L15 124.306Z" fill="white"/>
<path id="Vector_11" d="M11.0103 139H88.1295C89.5798 138.997 90.9699 138.42 91.9954 137.394C93.0209 136.369 93.5983 134.979 93.601 133.529C93.601 132.077 93.0246 130.686 91.9985 129.66C90.9724 128.633 89.5807 128.057 88.1295 128.057H11.0103V139Z" fill="#281B35"/>
<path id="Vector_12" d="M18.5026 135.746C18.4093 136.399 17.8186 136.896 16.8342 136.896C15.3419 136.896 14.171 135.736 14.171 133.549C14.171 131.363 15.3523 130.161 17.114 130.161C17.6361 130.129 18.1555 130.257 18.6033 130.527C19.0512 130.797 19.4063 131.197 19.6217 131.674L18.4715 132.326C18.3751 132.048 18.1904 131.808 17.9454 131.643C17.7005 131.479 17.4086 131.398 17.114 131.415C16.2435 131.415 15.6736 131.922 15.6736 133V134.036C15.6736 135.124 16.2435 135.622 17.114 135.622C17.829 135.622 18.3989 135.29 18.3989 134.658V134.326H17.1347V133.145H19.6943V136.772H18.5026V135.746Z" fill="white"/>
<path id="Vector_13" d="M11.0103 66.4093H38.2642C38.9831 66.4107 39.6952 66.2701 40.3597 65.9956C41.0241 65.7211 41.6278 65.3181 42.1362 64.8098C42.6445 64.3015 43.0475 63.6977 43.322 63.0333C43.5965 62.3688 43.7371 61.6567 43.7357 60.9378C43.7357 60.2193 43.5942 59.5078 43.3192 58.844C43.0443 58.1801 42.6412 57.577 42.1331 57.0689C41.6251 56.5608 41.0219 56.1578 40.3581 55.8828C39.6942 55.6078 38.9827 55.4663 38.2642 55.4663H11.0103V66.4093Z" fill="#8CB4D3"/>
<path id="Vector_14" d="M14.3575 57.6839H17.5181C17.7449 57.6625 17.9736 57.6905 18.1886 57.766C18.4035 57.8415 18.5995 57.9628 18.763 58.1214C18.9265 58.28 19.0537 58.4722 19.1358 58.6847C19.2178 58.8972 19.2528 59.125 19.2383 59.3523C19.2383 60.3886 18.6891 60.7306 18.0259 60.7513V60.8135C18.2244 60.8087 18.4217 60.8454 18.6053 60.9211C18.7888 60.9968 18.9546 61.1099 19.0921 61.2532C19.2295 61.3965 19.3356 61.5668 19.4036 61.7534C19.4716 61.94 19.5 62.1386 19.487 62.3368C19.501 62.5694 19.4684 62.8024 19.3912 63.0222C19.314 63.242 19.1937 63.4442 19.0373 63.617C18.881 63.7897 18.6918 63.9295 18.4807 64.0282C18.2697 64.1269 18.0411 64.1825 17.8083 64.1917H14.3575V57.6839ZM15.829 60.3575H17.2383C17.3188 60.3637 17.3997 60.3525 17.4755 60.3245C17.5512 60.2964 17.62 60.2524 17.6771 60.1953C17.7342 60.1382 17.7783 60.0694 17.8063 59.9936C17.8343 59.9179 17.8456 59.837 17.8394 59.7565V59.4974C17.8456 59.4169 17.8343 59.336 17.8063 59.2602C17.7783 59.1845 17.7342 59.1157 17.6771 59.0586C17.62 59.0015 17.5512 58.9574 17.4755 58.9294C17.3997 58.9014 17.3188 58.8901 17.2383 58.8964H15.829V60.3575ZM15.829 63H17.4663C17.5467 63.0098 17.6282 63.0013 17.7049 62.9752C17.7815 62.9492 17.8513 62.9062 17.9091 62.8494C17.9668 62.7927 18.011 62.7236 18.0384 62.6474C18.0658 62.5712 18.0757 62.4899 18.0673 62.4093V62.0984C18.0738 62.0183 18.0626 61.9378 18.0345 61.8625C18.0064 61.7872 17.9622 61.719 17.9048 61.6627C17.8475 61.6063 17.7785 61.5633 17.7028 61.5365C17.627 61.5097 17.5463 61.4999 17.4663 61.5078H15.829V63Z" fill="white"/>
<path id="Vector_15" d="M15.8808 98.0466C15.7452 98.0467 15.6149 97.9935 15.518 97.8986C15.4212 97.8036 15.3654 97.6745 15.3627 97.5389V84.5129C15.3653 84.3764 15.4208 84.2461 15.5174 84.1495C15.614 84.0529 15.7442 83.9975 15.8808 83.9948H20.7927C24.6995 83.9948 27.0103 86.6269 27.0103 91.0207C27.0103 95.4145 24.6787 98.0466 20.7927 98.0466H15.8808ZM20.7927 94.5026C22.2953 94.5026 23 93.715 23 92.0363V89.9637C23 88.285 22.2953 87.4974 20.7927 87.4974H19.228V94.4508L20.7927 94.5026Z" fill="white"/>
<path id="Vector_16" d="M20.7928 84.513C24.2436 84.513 26.513 86.6995 26.513 91.0207C26.513 95.342 24.2436 97.5389 20.7928 97.5389H15.8809V84.513H20.7928ZM18.7203 95.0207H20.7928C22.4716 95.0207 23.5078 94.1088 23.5078 92.0363V89.9637C23.5078 87.8912 22.4716 86.9793 20.7928 86.9793H18.7203V94.9689M20.7928 83.4352H15.8809C15.606 83.4352 15.3425 83.5444 15.1481 83.7388C14.9538 83.9331 14.8446 84.1967 14.8446 84.4715V97.4974C14.8446 97.7723 14.9538 98.0358 15.1481 98.2302C15.3425 98.4245 15.606 98.5337 15.8809 98.5337H20.7928C25.0208 98.5337 27.5493 95.715 27.5493 90.9897C27.5493 86.2643 25.0208 83.456 20.7928 83.456V83.4352ZM19.7565 88.0052H20.7928C21.6736 88.0052 22.4819 88.2435 22.4819 89.9637V92.0363C22.4819 93.7565 21.6736 93.9948 20.7928 93.9948H19.7565V88.057V88.0052Z" fill="#1D1D1B"/>
<path id="Vector_17" d="M65.3938 91.0208H87.4249" stroke="#1D1D1B" stroke-width="1.32001"/>
</g>
<g id="valeurs">
<text id="unite" fill="#212529" style="white-space: pre" xml:space="preserve" font-family="Nimbus Sans" font-size="6" font-weight="bold" letter-spacing="0em"><tspan x="88" y="101.919">kg CO₂/m²/an</tspan></text>
<text id="data_ges" fill="#212529" style="white-space: pre" xml:space="preserve" font-family="Nimbus Sans" font-size="12" font-weight="bold" letter-spacing="0em"><tspan x="88" y="93.2559">48</tspan></text>
</g>
</g>
</svg>