<svg xmlns="http://www.w3.org/2000/svg" width="177" height="166" viewBox="0 0 177 166" fill="none" x="235" y="5">
<g id="GES_E">
<g id="cadre">
<path id="cadre_2" d="M135.912 1H6.08781C3.27789 1 1 3.44895 1 6.46988V159.53C1 162.551 3.27789 165 6.08781 165H135.912C138.722 165 141 162.551 141 159.53V6.46988C141 3.44895 138.722 1 135.912 1Z" stroke="#A5DBF8" stroke-width="1.89334" stroke-miterlimit="10"/>
<text id="label_haut" fill="#8CB4D3" style="white-space: pre" xml:space="preserve" font-family="Nimbus Sans" font-size="6" font-weight="bold" letter-spacing="0em"><tspan x="11" y="35.1279">peu d'émissions de CO₂</tspan></text>
<text id="label_bas" fill="#393551" style="white-space: pre" xml:space="preserve" font-family="Nimbus Sans" font-size="6" font-weight="bold" letter-spacing="0em"><tspan x="11" y="147.058">émissions de CO₂
</tspan><tspan x="11" y="154.058">très importantes</tspan></text>
<text id="label-asterisque" fill="#212529" style="white-space: pre" xml:space="preserve" font-family="Nimbus Sans" font-size="7" font-weight="bold" letter-spacing="0em"><tspan x="11" y="15.8159">* Dont émissions de gaz
</tspan><tspan x="11" y="23.8159">à effet de serre</tspan></text>
</g>
<g id="valeurs">
<text id="unite" fill="#212529" style="white-space: pre" xml:space="preserve" font-family="Nimbus Sans" font-size="6" font-weight="bold" letter-spacing="0em"><tspan x="97" y="114.919">kg CO₂/m²/an</tspan></text>
<text id="data_ges" fill="#212529" style="white-space: pre" xml:space="preserve" font-family="Nimbus Sans" font-size="12" font-weight="bold" letter-spacing="0em"><tspan x="97" y="106.256">59</tspan></text>
</g>
<g id="graph">
<path id="Vector" d="M11 53.9326H29.5803C31.0315 53.9326 32.4231 53.3562 33.4493 52.3301C34.4754 51.304 35.0518 49.9123 35.0518 48.4611C35.0491 47.0118 34.4714 45.6228 33.4456 44.5989C32.4198 43.575 31.0297 43 29.5803 43H11V53.9326Z" fill="#A4DBF8"/>
<path id="Vector_2" d="M18.5234 51.7254L18.057 50.1709H15.8809L15.4146 51.7254H13.9845L16.1296 45.2072H17.9016L19.9741 51.7254H18.5234ZM16.9897 46.544H16.9379L16.2228 49.0103H17.7151L16.9897 46.544Z" fill="white"/>
<path id="Vector_3" d="M11 78.886H46.6477C47.3648 78.8846 48.0747 78.742 48.7368 78.4663C49.3988 78.1906 50.0001 77.7872 50.5063 77.2791C51.0124 76.7711 51.4135 76.1683 51.6867 75.5052C51.9599 74.8421 52.0998 74.1317 52.0985 73.4145C52.0985 71.9652 51.5234 70.575 50.4996 69.5492C49.4757 68.5234 48.0867 67.9457 46.6373 67.943H11V78.886Z" fill="#7792B1"/>
<path id="Vector_4" d="M14.4197 73.4663C14.4197 71.2591 15.5492 70.0466 17.3005 70.0466C17.8175 70.0054 18.3341 70.1324 18.773 70.4088C19.2119 70.6852 19.5496 71.0962 19.7357 71.5803L18.5129 72.2124C18.4537 71.9411 18.2983 71.7004 18.0755 71.5347C17.8527 71.369 17.5774 71.2895 17.3005 71.3109C16.4715 71.3109 15.9223 71.8705 15.9223 72.8964V73.9326C15.9223 74.9689 16.4715 75.5181 17.3005 75.5181C17.5937 75.5218 17.8799 75.4282 18.1143 75.2519C18.3486 75.0757 18.518 74.8267 18.5958 74.544L19.7565 75.2176C19.5542 75.6961 19.2106 76.1013 18.7717 76.3791C18.3328 76.6569 17.8195 76.794 17.3005 76.772C15.5492 76.7824 14.4197 75.6632 14.4197 73.4663Z" fill="white"/>
<path id="Vector_5" d="M11.5182 113.529V93.4145H61.2591C62.607 93.3713 63.9498 93.5994 65.2078 94.0853C66.4658 94.5713 67.6132 95.3051 68.582 96.2433C69.5507 97.1814 70.321 98.3047 70.8471 99.5464C71.3731 100.788 71.6442 102.123 71.6442 103.472C71.6442 104.82 71.3731 106.155 70.8471 107.397C70.321 108.638 69.5507 109.762 68.582 110.7C67.6132 111.638 66.4658 112.372 65.2078 112.858C63.9498 113.344 62.607 113.572 61.2591 113.529H11.5182Z" fill="#4D5271"/>
<path id="Vector_6" d="M61.3005 93.9223C63.7787 94.004 66.1281 95.0458 67.8522 96.8277C69.5764 98.6096 70.5403 100.992 70.5403 103.472C70.5403 105.951 69.5764 108.333 67.8522 110.115C66.1281 111.897 63.7787 112.939 61.3005 113.021H12.0259V93.9223H61.3005ZM61.3005 92.886H11V114.036H61.3005C64.0479 113.95 66.654 112.798 68.567 110.825C70.48 108.851 71.5498 106.21 71.5498 103.461C71.5498 100.712 70.48 98.0716 68.567 96.0978C66.654 94.1239 64.0479 92.9721 61.3005 92.886Z" fill="#1D1D1B"/>
<path id="Vector_7" d="M11 91.3627H55.3213C56.7724 91.3627 58.1641 90.7862 59.1902 89.7601C60.2163 88.734 60.7928 87.3423 60.7928 85.8912C60.7941 85.1723 60.6535 84.4602 60.3791 83.7957C60.1046 83.1313 59.7016 82.5276 59.1932 82.0192C58.6849 81.5109 58.0812 81.1079 57.4167 80.8334C56.7523 80.5589 56.0402 80.4183 55.3213 80.4197H11V91.3627Z" fill="#606F8F"/>
<path id="Vector_8" d="M14.4612 82.6373H16.9171C18.6373 82.6373 19.7772 83.6735 19.7772 85.8912C19.7772 88.1088 18.6373 89.145 16.9171 89.145H14.4612V82.6373ZM16.9171 87.8912C17.7565 87.8912 18.2747 87.4248 18.2747 86.3989V85.3627C18.2747 84.3264 17.7565 83.8704 16.9171 83.8704H15.8809V87.8704L16.9171 87.8912Z" fill="white"/>
<path id="Vector_9" d="M11 126.523H79.5078C80.9571 126.521 82.3462 125.943 83.3701 124.917C84.3939 123.891 84.969 122.501 84.969 121.052C84.9703 120.334 84.8301 119.623 84.5562 118.959C84.2824 118.295 83.8803 117.692 83.3731 117.184C82.8658 116.675 82.2633 116.272 81.6001 115.997C80.9368 115.722 80.2258 115.58 79.5078 115.58H11V126.523Z" fill="#393551"/>
<path id="Vector_10" d="M14.9794 124.306V117.798H19.3006V119.052H16.3991V120.389H18.8757V121.674H16.3991V124.337L14.9794 124.306Z" fill="white"/>
<path id="Vector_11" d="M11 139H88.1192C89.5685 138.997 90.9576 138.42 91.9814 137.394C93.0053 136.368 93.5803 134.978 93.5803 133.529C93.5817 132.81 93.4414 132.099 93.1676 131.435C92.8938 130.772 92.4917 130.168 91.9845 129.66C91.4772 129.152 90.8747 128.749 90.2115 128.474C89.5482 128.199 88.8372 128.057 88.1192 128.057H11V139Z" fill="#281B35"/>
<path id="Vector_12" d="M18.4923 135.746C18.399 136.399 17.8083 136.896 16.8239 136.896C15.3316 136.896 14.1606 135.736 14.1606 133.549C14.1606 131.363 15.342 130.161 17.1037 130.161C17.6255 130.13 18.1443 130.259 18.5919 130.529C19.0394 130.799 19.3949 131.198 19.6114 131.674L18.4612 132.326C18.3648 132.048 18.1801 131.808 17.9351 131.643C17.6902 131.479 17.3983 131.398 17.1037 131.415C16.2228 131.415 15.6632 131.922 15.6632 133V134.036C15.6632 135.124 16.2228 135.622 17.1037 135.622C17.8083 135.622 18.3783 135.29 18.3783 134.658V134.326H17.114V133.145H19.684V136.772H18.4923V135.746Z" fill="white"/>
<path id="Vector_13" d="M11 66.4093H38.2539C38.9728 66.4107 39.6849 66.2701 40.3494 65.9956C41.0138 65.7211 41.6175 65.3181 42.1259 64.8098C42.6342 64.3015 43.0372 63.6977 43.3117 63.0333C43.5862 62.3688 43.7268 61.6567 43.7254 60.9378C43.7254 60.2193 43.5839 59.5078 43.3089 58.844C43.0339 58.1801 42.6309 57.577 42.1228 57.0689C41.6148 56.5608 41.0116 56.1578 40.3477 55.8828C39.6839 55.6078 38.9724 55.4663 38.2539 55.4663H11V66.4093Z" fill="#8CB4D3"/>
<path id="Vector_14" d="M14.3472 57.6839H17.5078C17.7346 57.6625 17.9633 57.6905 18.1783 57.766C18.3932 57.8415 18.5892 57.9628 18.7527 58.1214C18.9162 58.28 19.0434 58.4722 19.1255 58.6847C19.2075 58.8972 19.2425 59.125 19.228 59.3523C19.228 60.3886 18.6788 60.7306 18.0156 60.7513V60.8135C18.2141 60.8087 18.4114 60.8454 18.595 60.9211C18.7785 60.9968 18.9443 61.1099 19.0818 61.2532C19.2192 61.3965 19.3253 61.5668 19.3933 61.7534C19.4613 61.94 19.4897 62.1386 19.4767 62.3368C19.4907 62.5694 19.4581 62.8024 19.3809 63.0222C19.3037 63.242 19.1834 63.4442 19.027 63.617C18.8707 63.7897 18.6815 63.9295 18.4704 64.0282C18.2594 64.1269 18.0307 64.1825 17.7979 64.1917H14.3472V57.6839ZM15.7669 60.3575H17.1762C17.2563 60.364 17.3368 60.3528 17.4121 60.3247C17.4874 60.2966 17.5556 60.2523 17.612 60.195C17.6683 60.1377 17.7114 60.0687 17.7381 59.993C17.7649 59.9172 17.7747 59.8365 17.7669 59.7565V59.4974C17.7747 59.4174 17.7649 59.3367 17.7381 59.2609C17.7114 59.1852 17.6683 59.1162 17.612 59.0589C17.5556 59.0015 17.4874 58.9573 17.4121 58.9292C17.3368 58.9011 17.2563 58.8899 17.1762 58.8964H15.7669V60.3575ZM15.7669 63H17.3938C17.4746 63.0095 17.5565 63.0009 17.6335 62.9749C17.7106 62.9489 17.7809 62.906 17.8394 62.8495C17.8979 62.793 17.9432 62.7242 17.9718 62.6481C18.0005 62.5719 18.0119 62.4904 18.0052 62.4093V62.0984C18.01 62.0178 17.9974 61.9371 17.9681 61.8618C17.9388 61.7866 17.8935 61.7185 17.8354 61.6624C17.7773 61.6063 17.7078 61.5634 17.6316 61.5367C17.5553 61.51 17.4742 61.5001 17.3938 61.5078H15.7669V63Z" fill="white"/>
<path id="Vector_15" d="M15.8808 110.586C15.8133 110.587 15.7461 110.575 15.6833 110.55C15.6205 110.525 15.5633 110.488 15.515 110.441C15.4668 110.393 15.4285 110.337 15.4023 110.274C15.3761 110.212 15.3627 110.145 15.3627 110.078V97.0518C15.3627 96.9144 15.4173 96.7826 15.5144 96.6854C15.6116 96.5883 15.7434 96.5337 15.8808 96.5337H24.7409C24.8775 96.5363 25.0078 96.5918 25.1044 96.6884C25.201 96.785 25.2564 96.9152 25.259 97.0518V99.57C25.2564 99.7065 25.201 99.8368 25.1044 99.9334C25.0078 100.03 24.8775 100.085 24.7409 100.088H19.228V101.725H23.8808C23.9484 101.724 24.0155 101.736 24.0783 101.761C24.1411 101.786 24.1983 101.823 24.2466 101.87C24.2948 101.918 24.3332 101.974 24.3593 102.036C24.3855 102.099 24.399 102.166 24.3989 102.233V104.741C24.399 104.809 24.3855 104.875 24.3593 104.938C24.3332 105 24.2948 105.056 24.2466 105.104C24.1983 105.151 24.1411 105.188 24.0783 105.213C24.0155 105.238 23.9484 105.25 23.8808 105.249H19.228V107.041H24.7409C24.8783 107.041 25.0101 107.096 25.1073 107.193C25.2045 107.29 25.259 107.422 25.259 107.56V110.078C25.2563 110.213 25.2006 110.342 25.1037 110.437C25.0068 110.532 24.8766 110.586 24.7409 110.586H15.8808Z" fill="white"/>
<path id="Vector_16" d="M24.741 97.0519V99.57H18.7099V102.233H23.8912V104.741H18.7099V107.56H24.741V110.078H15.8809V97.0519H24.741ZM24.741 96.0156H15.8809C15.606 96.0156 15.3425 96.1248 15.1481 96.3191C14.9538 96.5134 14.8446 96.777 14.8446 97.0519V110.078C14.8446 110.353 14.9538 110.616 15.1481 110.811C15.3425 111.005 15.606 111.114 15.8809 111.114H24.741C25.0158 111.114 25.2794 111.005 25.4737 110.811C25.6681 110.616 25.7772 110.353 25.7772 110.078V107.56C25.7772 107.285 25.6681 107.021 25.4737 106.827C25.2794 106.633 25.0158 106.523 24.741 106.523H19.7462V105.767H23.8912C24.1661 105.767 24.4297 105.658 24.624 105.463C24.8183 105.269 24.9275 105.005 24.9275 104.731V102.223C24.9275 101.948 24.8183 101.684 24.624 101.49C24.4297 101.296 24.1661 101.187 23.8912 101.187H19.7462V100.575H24.741C25.0158 100.575 25.2794 100.466 25.4737 100.272C25.6681 100.077 25.7772 99.8137 25.7772 99.5389V97.0208C25.7772 96.7459 25.6681 96.4824 25.4737 96.288C25.2794 96.0937 25.0158 95.9845 24.741 95.9845V96.0156Z" fill="#1D1D1B"/>
<path id="Vector_17" d="M73.9534 103.466H95.9845" stroke="#1D1D1B" stroke-width="1.32001"/>
</g>
</g>
</svg>